<?xml version="1.0" encoding="UTF-8"?>
<svg width="363px" height="88px" viewBox="0 0 363 88" version="1.1" xmlns="http://www.w3.org/2000/svg" xmlns:xlink="http://www.w3.org/1999/xlink">
    <!-- Generator: Sketch 47.1 (45422) - http://www.bohemiancoding.com/sketch -->
    <title>grafana_icon_lockup_alt (1)</title>
    <desc>Created with Sketch.</desc>
    <defs>
        <linearGradient x1="49.8279141%" y1="122.57726%" x2="49.8279141%" y2="31.2927966%" id="linearGradient-1">
            <stop stop-color="#FCEE1F" offset="0%"></stop>
            <stop stop-color="#F15B2A" offset="100%"></stop>
        </linearGradient>
    </defs>
    <g id="Page-1" stroke="none" stroke-width="1" fill="none" fill-rule="evenodd">
        <g id="Integrations.Pages.Splunk.Lage" transform="translate(-155.000000, -176.000000)" fill-rule="nonzero">
            <g id="grafana_icon_lockup_alt-(1)" transform="translate(155.000000, 176.000000)">
                <path d="M145,47.6200873 C144.394619,63.0524017 132.650224,75 118,75 C102.502242,75 91,62.0567686 91,46.6244541 C91,30.9432314 103.470852,18 118.605381,18 C125.506726,18 132.165919,20.9868996 137.856502,26.4628821 L133.376682,32.0633188 C129.017937,28.2052402 123.811659,25.5917031 118.605381,25.5917031 C107.466368,25.5917031 98.3856502,35.0502183 98.3856502,46.6244541 C98.3856502,58.3231441 106.982063,67.4082969 118,67.4082969 C127.928251,67.4082969 135.67713,59.941048 137.130045,50.4825328 L114.730942,50.4825328 L114.730942,43.7620087 L145,43.7620087 L145,47.6200873 Z" id="Shape" fill="#5D5E5E"></path>
                <path d="M171.941489,43.25 L167.781915,43.25 C163.132979,43.25 159.462766,46.25 159.462766,51.125 L159.462766,74 L152,74 L152,36 L158.117021,36 L158.117021,39.25 C160.074468,37.25 163.37766,36 166.925532,36 L175,36 L171.941489,43.25 Z" id="Shape" fill="#5D5E5E"></path>
                <path d="M213,74.5047619 L206.541401,74.5047619 L206.541401,69.6761905 C203.187898,72.8952381 198.592357,75 193.5,75 C182.694268,75 174,66.2095238 174,55.4380952 C174,44.7904762 182.694268,36 193.5,36 C198.592357,36 203.063694,37.9809524 206.417197,41.3238095 L206.417197,36.6190476 L212.875796,36.6190476 L212.875796,74.5047619 L213,74.5047619 Z M205.547771,55.5619048 C205.547771,49.1238095 200.207006,43.6761905 193.624204,43.6761905 C187.041401,43.6761905 181.700637,49 181.700637,55.5619048 C181.700637,62.247619 187.041401,67.447619 193.624204,67.447619 C200.207006,67.447619 205.547771,62.1238095 205.547771,55.5619048 Z" id="Shape" fill="#5D5E5E"></path>
                <path d="M227.292818,35.0327869 L227.292818,37.1428571 L239.082873,37.1428571 L239.082873,43.8454333 L227.292818,43.8454333 L227.292818,75 L220,75 L220,35.2810304 C220,26.9648712 225.834254,22 233.127072,22 L242,22 L239.082873,29.0749415 L233.127072,29.0749415 C229.966851,29.0749415 227.292818,31.8056206 227.292818,35.0327869 Z" id="Shape" fill="#5D5E5E"></path>
                <path d="M279,74.5047619 L272.541401,74.5047619 L272.541401,69.6761905 C269.187898,72.8952381 264.592357,75 259.5,75 C248.694268,75 240,66.2095238 240,55.4380952 C240,44.7904762 248.694268,36 259.5,36 C264.592357,36 269.063694,37.9809524 272.417197,41.3238095 L272.417197,36.6190476 L278.875796,36.6190476 L278.875796,74.5047619 L279,74.5047619 Z M271.547771,55.5619048 C271.547771,49.1238095 266.207006,43.6761905 259.624204,43.6761905 C253.041401,43.6761905 247.700637,49 247.700637,55.5619048 C247.700637,62.247619 253.041401,67.447619 259.624204,67.447619 C266.33121,67.447619 271.547771,62.1238095 271.547771,55.5619048 Z" id="Shape" fill="#5D5E5E"></path>
                <path d="M319,51.8640777 L319,74 L311.46332,74 L311.46332,51.8640777 C311.46332,47.1909385 307.633205,43.5016181 303.061776,43.5016181 C298.366795,43.5016181 294.53668,47.1909385 294.53668,51.8640777 L294.53668,74 L287,74 L287,36.6148867 L293.301158,36.6148867 L293.301158,39.8122977 C296.019305,37.4757282 299.602317,36 303.432432,36 C312.081081,36 319,43.1326861 319,51.8640777 Z" id="Shape" fill="#5D5E5E"></path>
                <path d="M363,74.5047619 L356.541401,74.5047619 L356.541401,69.6761905 C353.187898,72.8952381 348.592357,75 343.5,75 C332.694268,75 324,66.2095238 324,55.4380952 C324,44.7904762 332.694268,36 343.5,36 C348.592357,36 353.063694,37.9809524 356.417197,41.3238095 L356.417197,36.6190476 L362.875796,36.6190476 L362.875796,74.5047619 L363,74.5047619 Z M355.671975,55.5619048 C355.671975,49.1238095 350.33121,43.6761905 343.748408,43.6761905 C337.165605,43.6761905 331.824841,49 331.824841,55.5619048 C331.824841,62.247619 337.165605,67.447619 343.748408,67.447619 C350.33121,67.447619 355.671975,62.1238095 355.671975,55.5619048 Z" id="Shape" fill="#5D5E5E"></path>
                <path d="M79.7546012,38.9039548 C79.6319018,37.4124294 79.3865031,35.6723164 78.8957055,33.8079096 C78.404908,31.9435028 77.6687117,29.8305085 76.6871166,27.7175141 C75.5828221,25.6045198 74.2331288,23.3672316 72.5153374,21.2542373 C71.7791411,20.3841808 71.0429448,19.6384181 70.3067485,18.7683616 C71.5337423,13.7966102 68.8343558,9.57062147 68.8343558,9.57062147 C64.1717791,9.3220339 61.2269939,11.0621469 60.1226994,11.8079096 C60,11.6836158 59.7546012,11.6836158 59.5092025,11.559322 C58.7730061,11.1864407 57.9141104,10.9378531 57.0552147,10.6892655 C56.196319,10.440678 55.3374233,10.1920904 54.4785276,9.94350282 C53.6196319,9.69491525 52.7607362,9.57062147 51.7791411,9.44632768 C51.6564417,9.44632768 51.4110429,9.44632768 51.2883436,9.3220339 C49.202454,2.73446328 43.4355828,0 43.4355828,0 C36.9325153,4.2259887 35.7055215,10.0677966 35.7055215,10.0677966 C35.7055215,10.0677966 35.7055215,10.1920904 35.5828221,10.440678 C35.2147239,10.5649718 34.8466258,10.6892655 34.4785276,10.8135593 C33.9877301,10.9378531 33.4969325,11.1864407 33.006135,11.3107345 C32.5153374,11.559322 32.0245399,11.6836158 31.5337423,11.9322034 C30.5521472,12.3050847 29.5705521,12.8022599 28.5889571,13.4237288 C27.607362,13.920904 26.7484663,14.5423729 25.8895706,15.1638418 C25.7668712,15.1638418 25.6441718,15.039548 25.6441718,15.039548 C16.5644172,11.559322 8.58895706,15.7853107 8.58895706,15.7853107 C7.85276074,25.480226 12.1472393,31.6949153 13.006135,32.8135593 C12.7607362,33.4350282 12.6380368,34.0564972 12.392638,34.6779661 C11.7791411,36.9152542 11.1656442,39.1525424 10.9202454,41.5141243 C10.9202454,41.8870056 10.797546,42.1355932 10.797546,42.5084746 C2.45398773,46.7344633 0,55.1864407 0,55.1864407 C6.99386503,63.2655367 15.0920245,63.7627119 15.0920245,63.7627119 C15.0920245,63.7627119 15.0920245,63.7627119 15.0920245,63.7627119 C16.0736196,65.6271186 17.3006135,67.3672316 18.6503067,69.1073446 C19.2638037,69.8531073 19.7546012,70.4745763 20.3680982,71.0960452 C17.791411,78.4293785 20.7361963,84.519774 20.7361963,84.519774 C28.4662577,84.7683616 33.6196319,81.039548 34.601227,80.1694915 C35.3374233,80.4180791 36.196319,80.6666667 36.9325153,80.9152542 C39.2638037,81.5367232 41.7177914,81.9096045 44.1717791,82.0338983 C44.7852761,82.0338983 45.398773,82.0338983 46.0122699,82.0338983 L46.2576687,82.0338983 L46.5030675,82.0338983 L46.8711656,82.0338983 L47.2392638,82.0338983 L47.2392638,82.0338983 C50.9202454,87.2542373 57.3006135,88 57.3006135,88 C61.8404908,83.1525424 62.0858896,78.3050847 62.0858896,77.1864407 L62.0858896,77.1864407 C62.0858896,77.1864407 62.0858896,77.1864407 62.0858896,77.0621469 C62.0858896,76.9378531 62.0858896,76.9378531 62.0858896,76.9378531 L62.0858896,76.9378531 C62.0858896,76.8135593 62.0858896,76.8135593 62.0858896,76.6892655 C63.0674847,76.0677966 63.9263804,75.3220339 64.7852761,74.4519774 C66.6257669,72.7118644 68.2208589,70.8474576 69.5705521,68.8587571 C69.6932515,68.6101695 69.8159509,68.4858757 69.9386503,68.2372881 C75.0920245,68.4858757 78.7730061,65.0056497 78.7730061,65.0056497 C77.9141104,59.5367232 74.8466258,56.9265537 74.2331288,56.4293785 L74.2331288,56.4293785 C74.2331288,56.4293785 74.2331288,56.4293785 74.1104294,56.4293785 C74.1104294,56.4293785 74.1104294,56.4293785 74.1104294,56.4293785 C74.1104294,56.4293785 74.1104294,56.4293785 74.1104294,56.4293785 C74.1104294,56.4293785 73.9877301,56.4293785 73.9877301,56.3050847 C73.9877301,55.9322034 73.9877301,55.6836158 74.1104294,55.3107345 C74.1104294,54.6892655 74.1104294,54.1920904 74.1104294,53.5706215 L74.1104294,53.0734463 L74.1104294,52.8248588 L74.1104294,52.700565 C74.1104294,52.5762712 74.1104294,52.5762712 74.1104294,52.5762712 L74.1104294,52.2033898 L74.1104294,51.7062147 C74.1104294,51.5819209 74.1104294,51.3333333 74.1104294,51.2090395 C74.1104294,51.0847458 74.1104294,50.960452 74.1104294,50.7118644 L74.1104294,50.2146893 L73.9877301,49.7175141 C73.8650307,49.0960452 73.7423313,48.4745763 73.6196319,47.9774011 C73.1288344,45.6158192 72.1472393,43.3785311 70.9202454,41.3898305 C69.6932515,39.4011299 68.2208589,37.6610169 66.5030675,36.0451977 C64.7852761,34.5536723 62.9447853,33.3107345 60.9815951,32.440678 C59.0184049,31.5706215 56.9325153,30.9491525 54.8466258,30.700565 C53.9877301,30.9491525 52.8834356,30.8248588 51.9018405,30.8248588 L51.5337423,30.8248588 L51.4110429,30.8248588 C51.4110429,30.8248588 51.2883436,30.8248588 51.2883436,30.8248588 L51.1656442,30.8248588 L50.797546,30.8248588 C50.6748466,30.8248588 50.5521472,30.8248588 50.4294479,30.8248588 C49.9386503,30.8248588 49.4478528,30.9491525 48.8343558,31.0734463 C46.7484663,31.4463277 44.9079755,32.1920904 43.190184,33.1864407 C41.4723926,34.180791 40,35.5480226 38.7730061,36.9152542 C37.5460123,38.4067797 36.6871166,40.0225989 35.9509202,41.6384181 C35.3374233,43.2542373 34.9693252,44.9943503 34.8466258,46.7344633 C34.8466258,47.1073446 34.8466258,47.6045198 34.8466258,47.9774011 C34.8466258,48.1016949 34.8466258,48.2259887 34.8466258,48.2259887 L34.8466258,48.5988701 C34.8466258,48.8474576 34.8466258,48.9717514 34.8466258,49.220339 C34.9693252,50.0903955 35.0920245,50.8361582 35.3374233,51.7062147 C35.8282209,53.3220339 36.5644172,54.6892655 37.4233129,55.9322034 C38.2822086,57.1751412 39.3865031,58.1694915 40.4907975,58.9152542 C41.595092,59.6610169 42.8220859,60.2824859 44.0490798,60.6553672 C45.2760736,61.0282486 46.3803681,61.1525424 47.607362,61.1525424 C47.7300613,61.1525424 47.8527607,61.1525424 47.9754601,61.1525424 C48.0981595,61.1525424 48.0981595,61.1525424 48.2208589,61.1525424 C48.3435583,61.1525424 48.3435583,61.1525424 48.4662577,61.1525424 C48.5889571,61.1525424 48.7116564,61.1525424 48.8343558,61.1525424 C48.8343558,61.1525424 48.9570552,61.1525424 48.9570552,61.1525424 L49.0797546,61.1525424 C49.202454,61.1525424 49.202454,61.1525424 49.3251534,61.1525424 C49.4478528,61.1525424 49.5705521,61.1525424 49.6932515,61.0282486 C49.8159509,61.0282486 49.9386503,61.0282486 50.0613497,60.9039548 C50.3067485,60.9039548 50.5521472,60.779661 50.797546,60.6553672 C51.2883436,60.5310734 51.7791411,60.2824859 52.1472393,60.0338983 C52.5153374,59.7853107 53.006135,59.5367232 53.3742331,59.2881356 C53.4969325,59.1638418 53.6196319,59.1638418 53.6196319,59.039548 C53.9877301,58.6666667 54.1104294,58.1694915 53.7423313,57.7966102 C53.4969325,57.4237288 53.006135,57.4237288 52.6380368,57.5480226 C52.5153374,57.5480226 52.392638,57.6723164 52.392638,57.6723164 C52.0245399,57.7966102 51.7791411,57.920904 51.4110429,58.0451977 C51.0429448,58.1694915 50.6748466,58.2937853 50.3067485,58.2937853 C50.0613497,58.2937853 49.9386503,58.2937853 49.6932515,58.4180791 C49.5705521,58.4180791 49.4478528,58.4180791 49.4478528,58.4180791 C49.3251534,58.4180791 49.202454,58.4180791 49.202454,58.4180791 C49.0797546,58.4180791 48.9570552,58.4180791 48.9570552,58.4180791 C48.8343558,58.4180791 48.7116564,58.4180791 48.5889571,58.4180791 C48.5889571,58.4180791 48.4662577,58.4180791 48.5889571,58.4180791 L48.5889571,58.4180791 L48.4662577,58.4180791 C48.4662577,58.4180791 48.3435583,58.4180791 48.3435583,58.4180791 C48.2208589,58.4180791 48.0981595,58.4180791 47.9754601,58.4180791 C47.1165644,58.2937853 46.2576687,58.0451977 45.398773,57.6723164 C44.5398773,57.299435 43.6809816,56.6779661 42.9447853,56.0564972 C42.208589,55.4350282 41.595092,54.5649718 41.1042945,53.6949153 C40.6134969,52.8248588 40.2453988,51.7062147 40.1226994,50.7118644 C40,50.2146893 40,49.5932203 40,49.0960452 C40,48.9717514 40,48.8474576 40,48.5988701 C40,48.5988701 40,48.5988701 40,48.5988701 L40,48.5988701 L40,48.4745763 C40,48.3502825 40,48.3502825 40,48.2259887 C40,47.9774011 40.1226994,47.6045198 40.1226994,47.3559322 C40.4907975,44.9943503 41.7177914,42.7570621 43.4355828,41.0169492 C43.9263804,40.6440678 44.4171779,40.1468927 44.9079755,39.7740113 C45.398773,39.4011299 46.0122699,39.1525424 46.5030675,38.779661 C47.1165644,38.5310734 47.607362,38.2824859 48.2208589,38.1581921 C48.8343558,38.0338983 49.4478528,37.9096045 50.0613497,37.7853107 C50.4294479,37.7853107 50.6748466,37.7853107 51.0429448,37.7853107 C51.1656442,37.7853107 51.1656442,37.7853107 51.2883436,37.7853107 L51.5337423,37.7853107 L51.6564417,37.7853107 C51.7791411,37.7853107 51.6564417,37.7853107 51.6564417,37.7853107 L51.7791411,37.7853107 L52.0245399,37.7853107 C52.7607362,37.7853107 53.3742331,37.9096045 54.1104294,38.0338983 C55.4601227,38.2824859 56.809816,38.779661 58.0368098,39.5254237 C60.4907975,40.8926554 62.5766871,43.0056497 63.803681,45.6158192 C64.4171779,46.8587571 64.9079755,48.2259887 65.1533742,49.7175141 C65.1533742,50.0903955 65.2760736,50.4632768 65.2760736,50.8361582 L65.2760736,51.0847458 L65.2760736,51.3333333 C65.2760736,51.4576271 65.2760736,51.4576271 65.2760736,51.5819209 C65.2760736,51.7062147 65.2760736,51.8305085 65.2760736,51.8305085 L65.2760736,52.079096 L65.2760736,52.3276836 C65.2760736,52.4519774 65.2760736,52.8248588 65.2760736,52.9491525 C65.2760736,53.3220339 65.1533742,53.6949153 65.1533742,54.1920904 C65.1533742,54.5649718 65.0306748,54.9378531 65.0306748,55.3107345 C64.9079755,55.6836158 64.9079755,56.0564972 64.7852761,56.4293785 C64.5398773,57.1751412 64.2944785,57.920904 64.0490798,58.6666667 C63.4355828,60.1581921 62.6993865,61.5254237 61.8404908,62.7683616 C60,65.3785311 57.4233129,67.3672316 54.601227,68.7344633 C53.1288344,69.3559322 51.6564417,69.8531073 50.0613497,70.1016949 C49.3251534,70.2259887 48.4662577,70.3502825 47.7300613,70.3502825 L47.607362,70.3502825 L47.4846626,70.3502825 L47.2392638,70.3502825 L46.8711656,70.3502825 L46.6257669,70.3502825 C46.7484663,70.3502825 46.6257669,70.3502825 46.6257669,70.3502825 L46.5030675,70.3502825 C46.1349693,70.3502825 45.6441718,70.3502825 45.2760736,70.2259887 C43.5582822,70.1016949 41.9631902,69.8531073 40.3680982,69.3559322 C38.7730061,68.8587571 37.1779141,68.2372881 35.7055215,67.4915254 C32.7607362,65.8757062 30.0613497,63.7627119 28.0981595,61.0282486 C27.1165644,59.6610169 26.1349693,58.2937853 25.398773,56.8022599 C24.6625767,55.3107345 24.0490798,53.6949153 23.6809816,52.2033898 C23.190184,50.5875706 22.9447853,48.9717514 22.8220859,47.3559322 L22.8220859,47.1073446 L22.8220859,46.9830508 L22.8220859,46.8587571 L22.8220859,46.7344633 L22.8220859,46.4858757 L22.8220859,46.3615819 L22.8220859,46.2372881 L22.8220859,45.9887006 L22.8220859,45.6158192 L22.8220859,45.4915254 C22.8220859,45.4915254 22.8220859,45.4915254 22.8220859,45.4915254 L22.8220859,45.3672316 C22.8220859,45.1186441 22.8220859,44.9943503 22.8220859,44.7457627 C22.8220859,43.8757062 22.9447853,43.1299435 23.0674847,42.259887 C23.190184,41.3898305 23.3128834,40.6440678 23.4355828,39.7740113 C23.5582822,38.9039548 23.803681,38.1581921 24.0490798,37.2881356 C24.5398773,35.6723164 25.0306748,34.0564972 25.7668712,32.5649718 C27.1165644,29.5819209 28.9570552,26.9717514 31.0429448,24.8587571 C31.5337423,24.3615819 32.1472393,23.8644068 32.7607362,23.3672316 C33.3742331,22.8700565 33.9877301,22.4971751 34.601227,22 C35.2147239,21.6271186 35.8282209,21.2542373 36.4417178,20.8813559 C36.809816,20.7570621 37.0552147,20.5084746 37.4233129,20.3841808 C37.5460123,20.259887 37.791411,20.259887 37.9141104,20.1355932 C38.0368098,20.0112994 38.2822086,20.0112994 38.404908,19.8870056 C39.1411043,19.6384181 39.7546012,19.3898305 40.4907975,19.1412429 C40.6134969,19.1412429 40.8588957,19.0169492 40.9815951,19.0169492 C41.1042945,19.0169492 41.3496933,18.8926554 41.4723926,18.8926554 C41.8404908,18.7683616 42.208589,18.6440678 42.5766871,18.6440678 C42.6993865,18.6440678 42.9447853,18.519774 43.0674847,18.519774 C43.190184,18.519774 43.4355828,18.3954802 43.5582822,18.3954802 C43.6809816,18.3954802 43.9263804,18.2711864 44.0490798,18.2711864 L44.2944785,18.2711864 L44.5398773,18.2711864 C44.6625767,18.2711864 44.9079755,18.2711864 45.0306748,18.1468927 C45.2760736,18.1468927 45.398773,18.1468927 45.6441718,18.0225989 C45.7668712,18.0225989 46.1349693,18.0225989 46.2576687,17.8983051 C46.3803681,17.8983051 46.5030675,17.8983051 46.6257669,17.8983051 L46.8711656,17.8983051 L46.993865,17.8983051 L47.1165644,17.8983051 C47.3619632,17.8983051 47.4846626,17.8983051 47.7300613,17.8983051 L48.0981595,17.8983051 C48.0981595,17.8983051 48.2208589,17.8983051 48.0981595,17.8983051 L48.2208589,17.8983051 L48.3435583,17.8983051 C48.4662577,17.8983051 48.7116564,17.8983051 48.8343558,17.8983051 C49.5705521,17.8983051 50.1840491,17.8983051 50.9202454,17.8983051 C52.2699387,17.8983051 53.6196319,18.1468927 54.9693252,18.3954802 C57.6687117,18.8926554 60.1226994,19.7627119 62.3312883,20.8813559 C64.5398773,22 66.6257669,23.3672316 68.3435583,24.8587571 C68.4662577,24.9830508 68.5889571,25.1073446 68.7116564,25.1073446 C68.8343558,25.2316384 68.9570552,25.3559322 69.0797546,25.3559322 C69.3251534,25.6045198 69.4478528,25.7288136 69.6932515,25.9774011 C69.9386503,26.2259887 70.0613497,26.3502825 70.3067485,26.5988701 C70.5521472,26.8474576 70.6748466,26.9717514 70.9202454,27.220339 C71.6564417,27.9661017 72.392638,28.8361582 73.006135,29.7062147 C74.2331288,31.3220339 75.2147239,32.9378531 76.0736196,34.5536723 C76.0736196,34.6779661 76.196319,34.8022599 76.196319,34.8022599 C76.196319,34.9265537 76.3190184,35.0508475 76.3190184,35.0508475 C76.4417178,35.299435 76.5644172,35.4237288 76.5644172,35.6723164 C76.6871166,35.920904 76.6871166,36.0451977 76.809816,36.1694915 C76.9325153,36.2937853 76.9325153,36.5423729 77.0552147,36.6666667 C77.3006135,37.4124294 77.6687117,38.0338983 77.791411,38.779661 C78.1595092,39.7740113 78.404908,40.7683616 78.6503067,41.6384181 C78.7730061,42.0112994 79.0184049,42.1355932 79.3865031,42.1355932 C79.7546012,42.1355932 80,41.7627119 80,41.5141243 C79.8773006,41.1412429 79.7546012,40.1468927 79.7546012,38.9039548 Z" id="Shape" fill="url(#linearGradient-1)"></path>
            </g>
        </g>
    </g>
</svg>